<svg xmlns="http://www.w3.org/2000/svg" version="1.1" xmlns:xlink="http://www.w3.org/1999/xlink" xmlns:svgjs="http://svgjs.dev/svgjs" width="2000" height="1836" viewBox="0 0 2000 1836"><g transform="matrix(1,0,0,1,1.1742665044656633,0.7433198380566637)"><svg viewBox="0 0 269 247" data-background-color="#ffffff" preserveAspectRatio="xMidYMid meet" height="1836" width="2000" xmlns="http://www.w3.org/2000/svg" xmlns:xlink="http://www.w3.org/1999/xlink"><g id="tight-bounds" transform="matrix(1,0,0,1,-0.1579388448506336,-0.09999999999999432)"><svg viewBox="0 0 269.31587768970127 247.2" height="247.2" width="269.31587768970127"><g><svg viewBox="0 0 395.52 363.04040013805263" height="247.2" width="269.31587768970127"><g transform="matrix(1,0,0,1,0,270.1199573336246)"><svg viewBox="0 0 395.52 92.92044280442803" height="92.92044280442803" width="395.52"><g id="textblocktransform"><svg viewBox="0 0 395.52 92.92044280442803" height="92.92044280442803" width="395.52" id="textblock"><g><svg viewBox="0 0 395.52 92.92044280442803" height="92.92044280442803" width="395.52"><g transform="matrix(1,0,0,1,0,0)"><svg width="395.52" viewBox="1.5 -37.1 203.23 47.75" height="92.92044280442803" data-palette-color="#621ded"><path d="M16.05 0.55L16.05 0.55Q9.5 0.55 5.5-3.85 1.5-8.25 1.5-15.5L1.5-15.5Q1.5-23.75 6.5-29.4 11.5-35.05 18.8-35.05L18.8-35.05Q21.7-35.05 24.18-34.52 26.65-34 27.7-33.45L27.7-33.45 28.7-32.9 25.8-25.95Q24.3-26.95 21.75-27.83 19.2-28.7 17.25-28.7L17.25-28.7Q13.2-28.7 10.75-25.85 8.3-23 8.3-18.3L8.3-18.3Q8.3-11.95 10.63-8.4 12.95-4.85 17.1-4.85L17.1-4.85Q19.8-4.85 22.2-5.6L22.2-5.6 22.2-13.35 15.75-13.35 16.25-18.4 28.25-18.4 27.8-10.25 28.15-1.6Q20.8 0.55 16.05 0.55ZM34.7-24.2L41.4-25.45 40.8-13 41.35-1.25 34.65 0 35.25-12.15 34.7-24.2ZM34.35-32.77Q34.35-34.45 35.65-35.77 36.95-37.1 38.65-37.1 40.35-37.1 41.25-36.18 42.15-35.25 42.15-33.4 42.15-31.55 40.87-30.23 39.6-28.9 37.92-28.9 36.25-28.9 35.3-30 34.35-31.1 34.35-32.77ZM60.25-25.25L60.25-25.25Q63.45-25.25 65.62-22.45 67.8-19.65 67.8-14.9L67.8-14.9Q67.8-8.25 64.37-4.13 60.95 0 55.85 0L55.85 0Q54.8 0 53.5-0.15L53.5-0.15 53.75 9.4 46.9 10.65 47.55-12.15 47.6-12.15Q47.4-18.85 46.5-24.15L46.5-24.15 52.55-25.45Q52.85-22.8 53.05-20.2L53.05-20.2Q53.15-20.45 54.07-21.58 55-22.7 56.8-23.98 58.6-25.25 60.25-25.25ZM58.3-18.75L58.3-18.75Q55.65-18.75 53.15-17.3L53.15-17.3 53.15-13 53.35-5.85Q56.05-5.4 57.45-5.4L57.45-5.4Q62.25-5.4 62.25-12.08 62.25-18.75 58.3-18.75ZM80.94-5.1L80.94-5.1Q82.39-5.1 83.99-5.85 85.59-6.6 86.49-7.35L86.49-7.35 87.39-8.1 89.69-5.3Q89.19-4.45 88.14-3.35 87.09-2.25 86.02-1.48 84.94-0.7 83.17-0.08 81.39 0.55 79.49 0.55L79.49 0.55Q75.44 0.55 72.89-2.53 70.34-5.6 70.34-10.45L70.34-10.45Q70.34-16.55 73.89-21.15 77.44-25.75 82.19-25.75L82.19-25.75Q85.84-25.75 87.87-23.7 89.89-21.65 89.89-17.95L89.89-17.95Q89.89-15.75 89.14-12.95L89.14-12.95 88.14-11.9 75.64-10.75Q76.49-5.1 80.94-5.1ZM80.94-20.6L80.94-20.6Q78.74-20.6 77.24-18.82 75.74-17.05 75.49-14.3L75.49-14.3 83.99-15.35Q84.14-16.5 84.14-17.25L84.14-17.25Q84.14-20.6 80.94-20.6ZM93.69-24.15L93.69-24.15 99.74-25.45Q100.19-21.6 100.34-18.15L100.34-18.15Q104.89-25.2 108.89-25.2L108.89-25.2 108.34-17.4Q105.44-17.4 103.77-16.88 102.09-16.35 100.34-14.8L100.34-14.8 100.34-13 100.89-1.25 94.19 0 94.79-12.15Q94.59-18.85 93.69-24.15ZM121.34-34.85L127.64-15.6 128.14-15.6 135.44-34.6 142.34-34.4 142.54-12.9 143.49 0 136.74 0 136.99-13 136.44-26.15 130.44-9.6 124.29-9.3 118.69-26.15 118.24-13 118.59 0 112.39 0 113.09-12.15 113.39-33.6 121.34-34.85ZM154.39 0Q151.44 0 149.56-1.88 147.69-3.75 147.69-6.93 147.69-10.1 150.59-12.43 153.49-14.75 157.64-14.75L157.64-14.75 161.04-14.75 161.04-15.6Q161.04-18.05 160.04-18.95 159.04-19.85 156.29-19.85L156.29-19.85Q155.14-19.85 153.56-19.38 151.99-18.9 150.04-17.9L150.04-17.9 148.59-21.85Q150.74-23.35 153.81-24.55 156.89-25.75 158.89-25.75L158.89-25.75Q166.74-25.75 166.74-18.15L166.74-18.15 166.74-8.35Q166.74-5.55 168.49-2.1L168.49-2.1 163.19 0.15Q161.94-2.25 161.34-4.15L161.34-4.15Q158.59 0 154.39 0L154.39 0ZM156.49-5.1L156.49-5.1Q158.49-5.1 161.04-7.15L161.04-7.15 161.04-10.5Q158.39-11.1 156.74-11.1L156.74-11.1Q153.59-11.1 153.59-8.3L153.59-8.3Q153.59-6.85 154.39-5.98 155.19-5.1 156.49-5.1ZM172.28-24.15L172.28-24.15 178.33-25.45Q178.78-21.6 178.93-18.15L178.93-18.15Q183.48-25.2 187.48-25.2L187.48-25.2 186.93-17.4Q184.03-17.4 182.36-16.88 180.68-16.35 178.93-14.8L178.93-14.8 178.93-13 179.48-1.25 172.78 0 173.38-12.15Q173.18-18.85 172.28-24.15ZM189.68-24.2L192.58-24.2 192.58-29.65 199.33-30.95 198.68-24.2 204.73-24.2 204.18-20.1 198.48-20.1 198.23-9.65Q198.23-7.3 198.68-6.53 199.13-5.75 200.33-5.75 201.53-5.75 203.53-6.3L203.53-6.3 203.83-2.75Q200.53 0 198.03 0 195.53 0 193.93-1.83 192.33-3.65 192.33-6.6L192.33-6.6 192.63-12.2 192.58-20.1 189.13-20.1 189.68-24.2Z" opacity="1" transform="matrix(1,0,0,1,0,0)" fill="#621ded" class="wordmark-text-0" data-fill-palette-color="primary" id="text-0"></path></svg></g></svg></g></svg></g></svg></g><g transform="matrix(1,0,0,1,84.63630778868584,0)"><svg viewBox="0 0 226.2473844226283 226.2473844226283" height="226.2473844226283" width="226.2473844226283"><g><svg></svg></g><g id="icon-0"><svg viewBox="0 0 226.2473844226283 226.2473844226283" height="226.2473844226283" width="226.2473844226283"><g><path d="M0 113.124c0-62.476 50.647-113.124 113.124-113.124 62.476 0 113.124 50.647 113.123 113.124 0 62.476-50.647 113.124-113.123 113.123-62.476 0-113.124-50.647-113.124-113.123zM113.124 217.868c57.849 0 104.744-46.895 104.744-104.744 0-57.849-46.895-104.744-104.744-104.744-57.849 0-104.744 46.895-104.744 104.744 0 57.849 46.895 104.744 104.744 104.744z" data-fill-palette-color="accent" fill="#621ded" stroke="transparent"></path><ellipse rx="111.992455289201" ry="111.992455289201" cx="113.12369221131415" cy="113.12369221131415" fill="#621ded" stroke="transparent" stroke-width="0" fill-opacity="1" data-fill-palette-color="accent"></ellipse></g><g transform="matrix(1,0,0,1,47.659219740225126,63.27452838629513)"><svg viewBox="0 0 130.92894494217805 99.69832765003804" height="99.69832765003804" width="130.92894494217805"><g><svg xmlns="http://www.w3.org/2000/svg" xmlns:xlink="http://www.w3.org/1999/xlink" version="1.1" x="0" y="0" viewBox="7.5 17.194 85.666 65.232" enable-background="new 0 0 100 100" xml:space="preserve" height="99.69832765003804" width="130.92894494217805" class="icon-cg-0" data-fill-palette-color="quaternary" id="cg-0"><path fill="#ffffff" d="M77.698 17.194c-8.543 0-15.469 6.925-15.469 15.468 0 0.797 0.079 1.573 0.195 2.338l0 0h-37.07l-4.375-5H9c-0.829 0-1.5 0.671-1.5 1.5S8.171 33 9 33h10.618l4.842 5.533 4.889 28.587c0.115 0.671 0.346 1.298 0.663 1.868-2.926 0.773-5.093 3.436-5.093 6.602 0 3.77 3.066 6.836 6.836 6.836 3.769 0 6.835-3.066 6.835-6.836 0-1.317-0.381-2.545-1.03-3.59h22.912c-0.648 1.045-1.029 2.272-1.029 3.59 0 3.77 3.066 6.836 6.836 6.836s6.836-3.066 6.836-6.836c0-1.789-0.696-3.414-1.825-4.633 1.032-0.719 1.839-1.764 2.247-3.02l6.474-19.999 0 0c7.442-1.119 13.155-7.522 13.155-15.277C93.166 24.119 86.241 17.194 77.698 17.194zM62.366 38l5.273 30.891c-0.44-0.089-0.896-0.137-1.36-0.137-0.62 0-1.219 0.091-1.789 0.246h-1.836l-5.292-31H62.366zM27.413 38h3.567l5.293 31h-1.199c-1.373 0-2.537-1.033-2.768-2.387L27.413 38zM31.755 79.426c-2.115 0-3.836-1.721-3.836-3.836s1.721-3.836 3.836-3.836c2.115 0 3.835 1.721 3.835 3.836S33.87 79.426 31.755 79.426zM37.546 69l-5.293-31h5.004l5.292 31H37.546zM43.824 69l-5.293-31h5.004l5.292 31H43.824zM50.101 69l-5.292-31h5.004l5.292 31H50.101zM51.085 38h5.004l5.293 31h-5.004L51.085 38zM66.279 79.426c-2.115 0-3.836-1.721-3.836-3.836 0-1.652 1.057-3.052 2.525-3.59h2.621c1.469 0.538 2.525 1.938 2.525 3.59C70.115 77.705 68.395 79.426 66.279 79.426zM70.684 66.969c-0.281 0.865-0.949 1.512-1.777 1.789l-4.979-29.071c-0.002-0.005-0.004-0.01-0.006-0.014 1.371 2.688 3.498 4.918 6.109 6.413-0.001 0-0.002-0.001-0.004-0.002l2.566 14.983L70.684 66.969zM73.426 58.492l-2.004-11.7c1.615 0.718 3.375 1.16 5.224 1.285l0.054 0.317L73.426 58.492zM77.698 48.13c0.423 0 0.838-0.03 1.253-0.063C78.537 48.105 78.121 48.13 77.698 48.13zM89 32.694C89 34.436 87.66 36 85.92 36H81v4.883C81 42.625 79.471 44 77.73 44h-0.064C75.926 44 75 42.625 75 40.883V36h-5.523C67.736 36 66 34.436 66 32.694V32.63c0-1.741 1.736-3.63 3.477-3.63H75v-4.559C75 22.7 75.926 21 77.666 21h0.064c1.74 0 3.27 1.7 3.27 3.441V29h4.92c1.74 0 3.08 1.889 3.08 3.63V32.694z" data-fill-palette-color="quaternary"></path></svg></g></svg></g></svg></g></svg></g><g></g></svg></g><defs></defs></svg><rect width="269.31587768970127" height="247.2" fill="none" stroke="none" visibility="hidden"></rect></g></svg></g></svg>